<!--
  - MHSF, Minehut Server List
  - All external content is rather licensed under the ECA Agreement
  - located here: https://mhsf.app/docs/legal/external-content-agreement
  -
  - All code under MHSF is licensed under the MIT License
  - by open source contributors
  -
  - Copyright (c) 2025 dvelo
  -
  - Permission is hereby granted, free of charge, to any person obtaining a copy
  - of this software and associated documentation files (the "Software"), to
  - deal in the Software without restriction, including without limitation the
  - rights to use, copy, modify, merge, publish, distribute, sublicense, and/or
  - sell copies of the Software, and to permit persons to whom the Software is
  - furnished to do so, subject to the following conditions:
  -
  - The above copyright notice and this permission notice shall be included in all
  - copies or substantial portions of the Software.
  -
  - THE SOFTWARE IS PROVIDED "AS IS", WITHOUT WARRANTY OF ANY KIND,
  - EXPRESS OR IMPLIED, INCLUDING BUT NOT LIMITED TO THE WARRANTIES
  - OF MERCHANTABILITY, FITNESS FOR A PARTICULAR PURPOSE AND
  - NONINFRINGEMENT. IN NO EVENT SHALL THE AUTHORS OR COPYRIGHT
  - HOLDERS BE LIABLE FOR ANY CLAIM, DAMAGES OR OTHER LIABILITY,
  - WHETHER IN AN ACTION OF CONTRACT, TORT OR OTHERWISE, ARISING
  - FROM, OUT OF OR IN CONNECTION WITH THE SOFTWARE OR THE USE OR
  - OTHER DEALINGS IN THE SOFTWARE.
  -->

<svg width="265" height="266" viewBox="0 0 265 266" fill="none" xmlns="http://www.w3.org/2000/svg">
<rect x="0.0612793" y="0.86145" width="264.939" height="264.939" rx="66" fill="url(#paint0_linear_1_20)"/>
<path d="M104.05 124.132H94.4089C91.852 124.132 89.3998 123.116 87.5918 121.308C85.7838 119.5 84.7681 117.048 84.7681 114.491V95.2091C84.7681 92.6522 85.7838 90.2 87.5918 88.392C89.3998 86.584 91.852 85.5683 94.4089 85.5683H171.536C174.092 85.5683 176.545 86.584 178.353 88.392C180.161 90.2 181.176 92.6522 181.176 95.2091V114.491C181.176 117.048 180.161 119.5 178.353 121.308C176.545 123.116 174.092 124.132 171.536 124.132H161.895M104.05 143.413H94.4089C91.852 143.413 89.3998 144.429 87.5918 146.237C85.7838 148.045 84.7681 150.497 84.7681 153.054V172.336C84.7681 174.893 85.7838 177.345 87.5918 179.153C89.3998 180.961 91.852 181.977 94.4089 181.977H171.536C174.092 181.977 176.545 180.961 178.353 179.153C180.161 177.345 181.176 174.893 181.176 172.336V153.054C181.176 150.497 180.161 148.045 178.353 146.237C176.545 144.429 174.092 143.413 171.536 143.413H161.895M104.05 104.85H104.098M104.05 162.695H104.098M137.793 104.85L118.511 133.772H147.433L128.152 162.695" stroke="white" stroke-width="10" stroke-linecap="round" stroke-linejoin="round"/>
<circle cx="132.531" cy="133.331" r="91.3779" stroke="url(#paint1_linear_1_20)" stroke-width="8"/>
<defs>
<linearGradient id="paint0_linear_1_20" x1="107.361" y1="55.6155" x2="230.116" y2="226.059" gradientUnits="userSpaceOnUse">
<stop/>
</linearGradient>
<linearGradient id="paint1_linear_1_20" x1="132.531" y1="37.9529" x2="132.531" y2="228.709" gradientUnits="userSpaceOnUse">
<stop stop-color="#EFEC32"/>
<stop offset="1" stop-color="#98FF60"/>
</linearGradient>
</defs>
</svg>
