<!--
  - MHSF, Minehut Server List
  -
  - All code under MHSF is licensed under the MIT License
  - by open source contributors
  -
  - Copyright (c) 2025 dvelo
  -
  - Permission is hereby granted, free of charge, to any person obtaining a copy
  - of this software and associated documentation files (the "Software"), to
  - deal in the Software without restriction, including without limitation the
  - rights to use, copy, modify, merge, publish, distribute, sublicense, and/or
  - sell copies of the Software, and to permit persons to whom the Software is
  - furnished to do so, subject to the following conditions:
  -
  - The above copyright notice and this permission notice shall be included in all
  - copies or substantial portions of the Software.
  -
  - THE SOFTWARE IS PROVIDED "AS IS", WITHOUT WARRANTY OF ANY KIND,
  - EXPRESS OR IMPLIED, INCLUDING BUT NOT LIMITED TO THE WARRANTIES
  - OF MERCHANTABILITY, FITNESS FOR A PARTICULAR PURPOSE AND
  - NONINFRINGEMENT. IN NO EVENT SHALL THE AUTHORS OR COPYRIGHT
  - HOLDERS BE LIABLE FOR ANY CLAIM, DAMAGES OR OTHER LIABILITY,
  - WHETHER IN AN ACTION OF CONTRACT, TORT OR OTHERWISE, ARISING
  - FROM, OUT OF OR IN CONNECTION WITH THE SOFTWARE OR THE USE OR
  - OTHER DEALINGS IN THE SOFTWARE.
  -->

<svg width="266" height="265" viewBox="0 0 266 265" fill="none" xmlns="http://www.w3.org/2000/svg">
<rect x="0.524048" width="264.939" height="264.939" rx="66" fill="url(#paint0_linear_1_19)"/>
<path d="M104.513 123.27H94.8717C92.3148 123.27 89.8626 122.254 88.0546 120.446C86.2466 118.638 85.2309 116.186 85.2309 113.629V94.3476C85.2309 91.7907 86.2466 89.3385 88.0546 87.5305C89.8626 85.7225 92.3148 84.7068 94.8717 84.7068H171.998C174.555 84.7068 177.007 85.7225 178.815 87.5305C180.623 89.3385 181.639 91.7907 181.639 94.3476V113.629C181.639 116.186 180.623 118.638 178.815 120.446C177.007 122.254 174.555 123.27 171.998 123.27H162.357M104.513 142.552H94.8717C92.3148 142.552 89.8626 143.567 88.0546 145.376C86.2466 147.184 85.2309 149.636 85.2309 152.193V171.474C85.2309 174.031 86.2466 176.483 88.0546 178.291C89.8626 180.099 92.3148 181.115 94.8717 181.115H171.998C174.555 181.115 177.007 180.099 178.815 178.291C180.623 176.483 181.639 174.031 181.639 171.474V152.193C181.639 149.636 180.623 147.184 178.815 145.376C177.007 143.567 174.555 142.552 171.998 142.552H162.357M104.513 103.988H104.561M104.513 161.833H104.561M138.255 103.988L118.974 132.911H147.896L128.615 161.833" stroke="white" stroke-width="10" stroke-linecap="round" stroke-linejoin="round"/>
<circle cx="132.993" cy="132.469" r="91.3779" stroke="url(#paint1_linear_1_19)" stroke-width="8"/>
<defs>
<linearGradient id="paint0_linear_1_19" x1="107.824" y1="54.754" x2="230.579" y2="225.198" gradientUnits="userSpaceOnUse">
<stop stop-color="#007BFF"/>
<stop offset="1" stop-color="#BF00FF" stop-opacity="0.5"/>
</linearGradient>
<linearGradient id="paint1_linear_1_19" x1="132.993" y1="37.0914" x2="132.993" y2="227.847" gradientUnits="userSpaceOnUse">
<stop stop-color="#EFEC32"/>
<stop offset="1" stop-color="#98FF60"/>
</linearGradient>
</defs>
</svg>
