<svg width="129" height="128" viewBox="0 0 129 128" fill="none" xmlns="http://www.w3.org/2000/svg">
<rect x="0.775696" width="127.238" height="127.238" rx="63.6192" fill="url(#paint0_linear_1_189)"/>
<path d="M50.7168 59.2012H46.0867C44.8588 59.2012 43.6811 58.7134 42.8128 57.8451C41.9445 56.9768 41.4567 55.7991 41.4567 54.5712V45.311C41.4567 44.0831 41.9445 42.9054 42.8128 42.0371C43.6811 41.1688 44.8588 40.681 46.0867 40.681H83.1273C84.3552 40.681 85.5329 41.1688 86.4012 42.0371C87.2695 42.9054 87.7573 44.0831 87.7573 45.311V54.5712C87.7573 55.7991 87.2695 56.9768 86.4012 57.8451C85.5329 58.7134 84.3552 59.2012 83.1273 59.2012H78.4972M50.7168 68.4614H46.0867C44.8588 68.4614 43.6811 68.9492 42.8128 69.8175C41.9445 70.6858 41.4567 71.8635 41.4567 73.0914V82.3516C41.4567 83.5795 41.9445 84.7572 42.8128 85.6255C43.6811 86.4938 44.8588 86.9816 46.0867 86.9816H83.1273C84.3552 86.9816 85.5329 86.4938 86.4012 85.6255C87.2695 84.7572 87.7573 83.5795 87.7573 82.3516V73.0914C87.7573 71.8635 87.2695 70.6858 86.4012 69.8175C85.5329 68.9492 84.3552 68.4614 83.1273 68.4614H78.4972M50.7168 49.9411H50.7399M50.7168 77.7215H50.7399M66.922 49.9411L57.6619 63.8313H71.5521L62.292 77.7215" stroke="white" stroke-width="5" stroke-linecap="round" stroke-linejoin="round"/>
<circle cx="64.395" cy="63.6192" r="41.8058" stroke="url(#paint1_linear_1_189)" stroke-width="8"/>
<defs>
<linearGradient id="paint0_linear_1_189" x1="52.3073" y1="26.296" x2="111.261" y2="108.153" gradientUnits="userSpaceOnUse">
<stop stop-color="#007BFF"/>
<stop offset="1" stop-color="#BF00FF" stop-opacity="0.5"/>
</linearGradient>
<linearGradient id="paint1_linear_1_189" x1="64.395" y1="17.8134" x2="64.395" y2="109.425" gradientUnits="userSpaceOnUse">
<stop stop-color="#EFEC32"/>
<stop offset="1" stop-color="#98FF60"/>
</linearGradient>
</defs>
</svg>
