<!--
  - MHSF, Minehut Server List
  - All external content is rather licensed under the ECA Agreement
  - located here: https://list.mlnehut.com/docs/legal/external-content-agreement
  -
  - All code under MHSF is licensed under the MIT License
  - by open source contributors
  -
  - Copyright (c) 2024 dvelo
  -
  - Permission is hereby granted, free of charge, to any person obtaining a copy
  - of this software and associated documentation files (the "Software"), to
  - deal in the Software without restriction, including without limitation the
  - rights to use, copy, modify, merge, publish, distribute, sublicense, and/or
  - sell copies of the Software, and to permit persons to whom the Software is
  - furnished to do so, subject to the following conditions:
  -
  - The above copyright notice and this permission notice shall be included in all
  - copies or substantial portions of the Software.
  -
  - THE SOFTWARE IS PROVIDED "AS IS", WITHOUT WARRANTY OF ANY KIND,
  - EXPRESS OR IMPLIED, INCLUDING BUT NOT LIMITED TO THE WARRANTIES
  - OF MERCHANTABILITY, FITNESS FOR A PARTICULAR PURPOSE AND
  - NONINFRINGEMENT. IN NO EVENT SHALL THE AUTHORS OR COPYRIGHT
  - HOLDERS BE LIABLE FOR ANY CLAIM, DAMAGES OR OTHER LIABILITY,
  - WHETHER IN AN ACTION OF CONTRACT, TORT OR OTHERWISE, ARISING
  - FROM, OUT OF OR IN CONNECTION WITH THE SOFTWARE OR THE USE OR
  - OTHER DEALINGS IN THE SOFTWARE.
  -->

<svg width="128" height="128" viewBox="0 0 128 128" fill="none" xmlns="http://www.w3.org/2000/svg">
<rect x="0.761536" y="0.293091" width="127.238" height="127.238" rx="63.6192" fill="url(#paint0_linear_1_199)"/>
<path d="M50.7026 59.4943H46.0726C44.8446 59.4943 43.6669 59.0065 42.7986 58.1382C41.9303 57.2699 41.4425 56.0922 41.4425 54.8643V45.6041C41.4425 44.3762 41.9303 43.1985 42.7986 42.3302C43.6669 41.4619 44.8446 40.9741 46.0726 40.9741H83.1131C84.3411 40.9741 85.5187 41.4619 86.3871 42.3302C87.2554 43.1985 87.7432 44.3762 87.7432 45.6041V54.8643C87.7432 56.0922 87.2554 57.2699 86.3871 58.1382C85.5187 59.0065 84.3411 59.4943 83.1131 59.4943H78.483M50.7026 68.7545H46.0726C44.8446 68.7545 43.6669 69.2423 42.7986 70.1106C41.9303 70.9789 41.4425 72.1566 41.4425 73.3845V82.6447C41.4425 83.8726 41.9303 85.0503 42.7986 85.9186C43.6669 86.7869 44.8446 87.2747 46.0726 87.2747H83.1131C84.3411 87.2747 85.5187 86.7869 86.3871 85.9186C87.2554 85.0503 87.7432 83.8726 87.7432 82.6447V73.3845C87.7432 72.1566 87.2554 70.9789 86.3871 70.1106C85.5187 69.2423 84.3411 68.7545 83.1131 68.7545H78.483M50.7026 50.2342H50.7258M50.7026 78.0146H50.7258M66.9079 50.2342L57.6477 64.1244H71.5379L62.2778 78.0146" stroke="white" stroke-width="5" stroke-linecap="round" stroke-linejoin="round"/>
<circle cx="64.3808" cy="63.9123" r="41.8058" stroke="url(#paint1_linear_1_199)" stroke-width="8"/>
<defs>
<linearGradient id="paint0_linear_1_199" x1="52.2931" y1="26.589" x2="111.247" y2="108.446" gradientUnits="userSpaceOnUse">
<stop/>
</linearGradient>
<linearGradient id="paint1_linear_1_199" x1="64.3808" y1="18.1065" x2="64.3808" y2="109.718" gradientUnits="userSpaceOnUse">
<stop stop-color="#EFEC32"/>
<stop offset="1" stop-color="#98FF60"/>
</linearGradient>
</defs>
</svg>
