<!--
  - MHSF, Minehut Server List
  - All external content is rather licensed under the ECA Agreement
  - located here: https://list.mlnehut.com/docs/legal/external-content-agreement
  -
  - All code under MHSF is licensed under the MIT License
  - by open source contributors
  -
  - Copyright (c) 2024 dvelo
  -
  - Permission is hereby granted, free of charge, to any person obtaining a copy
  - of this software and associated documentation files (the "Software"), to
  - deal in the Software without restriction, including without limitation the
  - rights to use, copy, modify, merge, publish, distribute, sublicense, and/or
  - sell copies of the Software, and to permit persons to whom the Software is
  - furnished to do so, subject to the following conditions:
  -
  - The above copyright notice and this permission notice shall be included in all
  - copies or substantial portions of the Software.
  -
  - THE SOFTWARE IS PROVIDED "AS IS", WITHOUT WARRANTY OF ANY KIND,
  - EXPRESS OR IMPLIED, INCLUDING BUT NOT LIMITED TO THE WARRANTIES
  - OF MERCHANTABILITY, FITNESS FOR A PARTICULAR PURPOSE AND
  - NONINFRINGEMENT. IN NO EVENT SHALL THE AUTHORS OR COPYRIGHT
  - HOLDERS BE LIABLE FOR ANY CLAIM, DAMAGES OR OTHER LIABILITY,
  - WHETHER IN AN ACTION OF CONTRACT, TORT OR OTHERWISE, ARISING
  - FROM, OUT OF OR IN CONNECTION WITH THE SOFTWARE OR THE USE OR
  - OTHER DEALINGS IN THE SOFTWARE.
  -->

<svg width="128" height="128" viewBox="0 0 128 128" fill="none" xmlns="http://www.w3.org/2000/svg">
<rect width="127.238" height="127.238" rx="63.6192" fill="url(#paint0_linear_1_194)"/>
<path d="M49.9411 59.2012H45.311C44.0831 59.2012 42.9054 58.7134 42.0371 57.8451C41.1688 56.9768 40.681 55.7991 40.681 54.5712V45.311C40.681 44.0831 41.1688 42.9054 42.0371 42.0371C42.9054 41.1688 44.0831 40.681 45.311 40.681H82.3516C83.5795 40.681 84.7572 41.1688 85.6255 42.0371C86.4938 42.9054 86.9816 44.0831 86.9816 45.311V54.5712C86.9816 55.7991 86.4938 56.9768 85.6255 57.8451C84.7572 58.7134 83.5795 59.2012 82.3516 59.2012H77.7215M49.9411 68.4614H45.311C44.0831 68.4614 42.9054 68.9492 42.0371 69.8175C41.1688 70.6858 40.681 71.8635 40.681 73.0914V82.3516C40.681 83.5795 41.1688 84.7572 42.0371 85.6255C42.9054 86.4938 44.0831 86.9816 45.311 86.9816H82.3516C83.5795 86.9816 84.7572 86.4938 85.6255 85.6255C86.4938 84.7572 86.9816 83.5795 86.9816 82.3516V73.0914C86.9816 71.8635 86.4938 70.6858 85.6255 69.8175C84.7572 68.9492 83.5795 68.4614 82.3516 68.4614H77.7215M49.9411 49.9411H49.9643M49.9411 77.7215H49.9643M66.1463 49.9411L56.8862 63.8313H70.7764L61.5163 77.7215" stroke="white" stroke-width="5" stroke-linecap="round" stroke-linejoin="round"/>
<circle cx="63.6193" cy="63.6192" r="41.8058" stroke="url(#paint1_linear_1_194)" stroke-width="8"/>
<defs>
<linearGradient id="paint0_linear_1_194" x1="24.8115" y1="12.9359" x2="106.88" y2="102.639" gradientUnits="userSpaceOnUse">
<stop stop-color="#FF0000"/>
<stop offset="0.110405" stop-color="#FF6200"/>
<stop offset="0.225785" stop-color="#FFAE00"/>
<stop offset="0.326294" stop-color="#FFD500"/>
<stop offset="0.422381" stop-color="#99EA00"/>
<stop offset="0.498373" stop-color="#4DF457"/>
<stop offset="0.593491" stop-color="#26D3AB"/>
<stop offset="0.699814" stop-color="#13A9D5"/>
<stop offset="0.805673" stop-color="#A200FF"/>
<stop offset="0.884464" stop-color="#C62AEB"/>
<stop offset="0.957056" stop-color="white"/>
<stop offset="0.997383"/>
</linearGradient>
<linearGradient id="paint1_linear_1_194" x1="63.6193" y1="17.8134" x2="63.6193" y2="109.425" gradientUnits="userSpaceOnUse">
<stop stop-color="#EFEC32"/>
<stop offset="1" stop-color="#98FF60"/>
</linearGradient>
</defs>
</svg>
